<svg width="69" height="73" viewBox="0 0 69 73" fill="none" xmlns="http://www.w3.org/2000/svg">
<path d="M30.6085 40.051H29.9768V34.6187H33.0014V35.176H30.6085V37.1676H32.8565V37.7213H30.6085V40.051Z" fill="url(#paint0_linear_135_828)"/>
<path d="M33.3432 39.7686C33.3432 39.6745 33.3754 39.5977 33.4398 39.5383C33.5092 39.4788 33.5909 39.4317 33.6851 39.3971C33.7842 39.3624 33.8832 39.3376 33.9823 39.3227C34.0864 39.3029 34.1755 39.293 34.2499 39.293C34.2944 39.293 34.3415 39.2955 34.3911 39.3005C34.4456 39.3005 34.4951 39.3104 34.5397 39.3302C34.5892 39.345 34.6313 39.3698 34.666 39.4045C34.7007 39.4342 34.718 39.4813 34.718 39.5457C34.718 39.6349 34.6982 39.7117 34.6586 39.7761C34.619 39.8405 34.5694 39.895 34.51 39.9396C34.4505 39.9792 34.3836 40.0089 34.3093 40.0287C34.235 40.0485 34.1582 40.0585 34.0789 40.0585C34.0244 40.0585 33.9551 40.0585 33.8709 40.0585C33.7866 40.0634 33.7049 40.0585 33.6256 40.0436C33.5513 40.0287 33.4844 40.0015 33.425 39.9618C33.3705 39.9173 33.3432 39.8529 33.3432 39.7686ZM34.1458 39.6572C34.1359 39.6572 34.1186 39.6572 34.0938 39.6572C34.074 39.6572 34.0517 39.6596 34.0269 39.6646C34.0021 39.6695 33.9774 39.6795 33.9526 39.6943C33.9278 39.7042 33.913 39.7216 33.908 39.7463H34.1458V39.6572Z" fill="black"/>
<path d="M36.4273 39.7835C36.4273 39.7587 36.4273 39.7364 36.4273 39.7166C36.4322 39.6968 36.4446 39.677 36.4644 39.6572C36.4743 39.6572 36.4892 39.6572 36.509 39.6572C36.5338 39.6522 36.5511 39.6497 36.561 39.6497C36.6502 39.6497 36.7344 39.6572 36.8137 39.672C36.8979 39.6869 36.9846 39.6943 37.0738 39.6943C37.2373 39.6943 37.3934 39.672 37.542 39.6274C37.6906 39.5828 37.8219 39.5184 37.9358 39.4342C38.0547 39.345 38.1489 39.236 38.2182 39.1072C38.2876 38.9735 38.3223 38.8174 38.3223 38.6391C38.3223 38.535 38.3049 38.431 38.2703 38.3269C38.2405 38.2229 38.1984 38.1213 38.1439 38.0222C38.0894 37.9232 38.0275 37.8315 37.9581 37.7473C37.8888 37.6581 37.8145 37.5813 37.7352 37.5169L36.0706 36.1421C36.0606 36.1272 36.0359 36.1025 35.9962 36.0678C35.9616 36.0281 35.9343 36.0034 35.9145 35.9935L35.9071 36.0083C35.9021 36.0083 35.8972 36.0083 35.8922 36.0083H35.8848V38.9289L35.8476 39.4714C35.8476 39.516 35.8253 39.5506 35.7807 39.5754C35.7361 39.5952 35.699 39.6101 35.6693 39.62C35.6098 39.625 35.5652 39.615 35.5355 39.5903C35.5107 39.5655 35.4909 39.5308 35.476 39.4862C35.4612 39.4416 35.4537 39.3946 35.4537 39.345C35.4537 39.2955 35.4537 39.2534 35.4537 39.2187V35.451C35.3547 35.2974 35.2729 35.1413 35.2085 34.9828C35.1491 34.8243 35.1193 34.6533 35.1193 34.47C35.1193 34.4254 35.1218 34.366 35.1268 34.2917C35.1317 34.2174 35.1416 34.1455 35.1565 34.0762C35.1763 34.0018 35.206 33.9399 35.2457 33.8904C35.2903 33.8359 35.3497 33.8086 35.424 33.8086C35.4736 33.8086 35.5082 33.8284 35.5281 33.8681C35.5528 33.9077 35.5652 33.9498 35.5652 33.9944C35.5652 34.0687 35.5578 34.1381 35.5429 34.2025C35.5281 34.2669 35.5206 34.3363 35.5206 34.4106C35.5206 34.4552 35.5182 34.5121 35.5132 34.5815C35.5132 34.6509 35.5281 34.7103 35.5578 34.7598C35.5627 34.7004 35.5652 34.6211 35.5652 34.522C35.5702 34.423 35.5826 34.3263 35.6024 34.2322C35.6222 34.1381 35.6544 34.0563 35.699 33.987C35.7485 33.9176 35.8228 33.8829 35.9219 33.8829C35.9616 33.8829 35.9962 33.8928 36.026 33.9127C36.0557 33.9275 36.0706 33.9573 36.0706 34.0018V34.7598C36.0111 34.8243 35.9764 34.8986 35.9665 34.9828C35.9616 35.0621 35.9591 35.1413 35.9591 35.2206V35.3172C35.9591 35.3321 35.9616 35.3519 35.9665 35.3767C35.9715 35.3915 35.9814 35.4113 35.9962 35.4361C36.0161 35.4609 36.0359 35.4906 36.0557 35.5253C36.0805 35.555 36.1028 35.5847 36.1226 35.6145C36.1424 35.6392 36.1597 35.6591 36.1746 35.6739L37.8467 37.0413C38.0993 37.2543 38.3074 37.4946 38.4709 37.7621C38.6344 38.0247 38.7161 38.322 38.7161 38.6539C38.7161 38.8719 38.6716 39.0676 38.5824 39.241C38.4932 39.4094 38.3743 39.5556 38.2257 39.6795C38.077 39.7984 37.9061 39.89 37.7129 39.9544C37.5246 40.0188 37.3289 40.051 37.1258 40.051C37.0862 40.051 37.0267 40.0485 36.9475 40.0436C36.8682 40.0386 36.7889 40.0287 36.7097 40.0139C36.6353 39.999 36.5685 39.9742 36.509 39.9396C36.4545 39.9049 36.4273 39.8529 36.4273 39.7835ZM39.0208 38.8917C39.0307 38.862 39.0456 38.81 39.0654 38.7357C39.0902 38.6564 39.1125 38.5722 39.1323 38.483C39.1571 38.3938 39.1769 38.3096 39.1918 38.2303C39.2116 38.1461 39.2264 38.0891 39.2363 38.0594C39.2661 37.9405 39.3007 37.8117 39.3404 37.673C39.385 37.5342 39.4444 37.4054 39.5187 37.2865C39.5931 37.1676 39.6872 37.071 39.8011 36.9967C39.92 36.9174 40.0662 36.8778 40.2396 36.8778C40.304 36.8778 40.3486 36.9026 40.3734 36.9521C40.4031 36.9967 40.4278 37.0463 40.4477 37.1007C40.4477 37.1206 40.4477 37.1577 40.4477 37.2122C40.4526 37.2618 40.4551 37.2964 40.4551 37.3163C40.4551 37.5293 40.4328 37.7176 40.3882 37.881C40.3486 38.0445 40.2842 38.1956 40.195 38.3344C40.1108 38.4731 40.0067 38.6044 39.8829 38.7282C39.759 38.8471 39.6178 38.9735 39.4593 39.1072C39.4543 39.1221 39.4469 39.1469 39.437 39.1815C39.4271 39.2162 39.4221 39.241 39.4221 39.2559V39.2707C39.4221 39.3599 39.437 39.4317 39.4667 39.4862C39.4964 39.5407 39.5361 39.5853 39.5856 39.62C39.6401 39.6497 39.6996 39.6695 39.764 39.6795C39.8333 39.6844 39.9076 39.6869 39.9869 39.6869C40.2198 39.6869 40.4427 39.6547 40.6557 39.5903C40.8688 39.5259 41.0645 39.4218 41.2428 39.2782C41.2676 39.2534 41.2973 39.2187 41.332 39.1741C41.3716 39.1246 41.4113 39.075 41.4509 39.0255C41.4905 38.9759 41.5327 38.9338 41.5772 38.8992C41.6218 38.8595 41.6689 38.8397 41.7184 38.8397C41.768 38.8397 41.7977 38.8595 41.8076 38.8992C41.8175 38.9388 41.8225 38.9784 41.8225 39.0181C41.8225 39.1271 41.7878 39.2311 41.7184 39.3302C41.654 39.4243 41.5673 39.511 41.4583 39.5903C41.3543 39.6646 41.2329 39.7315 41.0942 39.7909C40.9604 39.8504 40.8267 39.8999 40.6929 39.9396C40.5591 39.9792 40.4303 40.0089 40.3065 40.0287C40.1876 40.0485 40.086 40.0585 40.0018 40.0585C39.7392 40.0585 39.5187 40.0163 39.3404 39.9321C39.167 39.8429 39.0481 39.6671 38.9837 39.4045L39.0208 38.8917ZM40.0835 37.4277C39.9844 37.5169 39.9052 37.5987 39.8457 37.673C39.7912 37.7423 39.7466 37.8166 39.712 37.8959C39.6822 37.9702 39.655 38.052 39.6302 38.1411C39.6104 38.2303 39.5881 38.3344 39.5633 38.4533C39.6575 38.379 39.7342 38.3046 39.7937 38.2303C39.8581 38.156 39.9101 38.0792 39.9498 38C39.9894 37.9207 40.0191 37.8365 40.0389 37.7473C40.0588 37.6532 40.0736 37.5466 40.0835 37.4277ZM42.0752 39.0032C42.0355 39.023 41.9934 39.0354 41.9488 39.0404C41.9042 39.0404 41.8596 39.0404 41.8151 39.0404C41.7705 39.0404 41.7259 39.0428 41.6813 39.0478C41.6367 39.0478 41.5921 39.0577 41.5475 39.0775C41.4633 39.0874 41.4088 39.0825 41.384 39.0626C41.3593 39.0379 41.3518 39.0057 41.3617 38.966C41.3716 38.9264 41.3989 38.8818 41.4435 38.8323C41.4881 38.7827 41.5401 38.7406 41.5995 38.7059C41.654 38.6713 41.7135 38.6465 41.7779 38.6316C41.8473 38.6168 41.9092 38.6192 41.9637 38.6391C41.9389 38.5499 41.9414 38.4731 41.9711 38.4087C42.0008 38.3443 42.0603 38.3121 42.1495 38.3121C42.1941 38.3121 42.2337 38.317 42.2684 38.3269C42.308 38.3319 42.3377 38.3517 42.3575 38.3864C42.4319 38.3418 42.5309 38.2675 42.6548 38.1634C42.7787 38.0544 42.905 37.9455 43.0338 37.8365C43.1676 37.7225 43.289 37.6234 43.3979 37.5392C43.5069 37.45 43.5813 37.4054 43.6209 37.4054C43.6358 37.4054 43.6556 37.4079 43.6803 37.4129C43.7051 37.4129 43.7299 37.4178 43.7547 37.4277C43.7844 37.4376 43.8067 37.45 43.8215 37.4649C43.8414 37.4748 43.8513 37.4921 43.8513 37.5169V37.8365C43.8166 37.9752 43.7819 38.1065 43.7472 38.2303C43.7175 38.3492 43.6902 38.4681 43.6655 38.587C43.6457 38.701 43.6308 38.8174 43.6209 38.9363C43.611 39.0552 43.606 39.1815 43.606 39.3153C43.6853 39.3153 43.7794 39.298 43.8884 39.2633C44.0024 39.2286 44.1163 39.1865 44.2303 39.137C44.3442 39.0874 44.4507 39.0379 44.5498 38.9883C44.6489 38.9338 44.7282 38.8892 44.7876 38.8546C44.7975 38.8496 44.8198 38.8323 44.8545 38.8025C44.8892 38.7728 44.9263 38.7431 44.966 38.7134C45.0056 38.6787 45.0428 38.649 45.0774 38.6242C45.1171 38.5945 45.1419 38.5746 45.1518 38.5647C45.1617 38.5548 45.1864 38.5424 45.2261 38.5276C45.2657 38.5078 45.288 38.4954 45.293 38.4904C45.3128 38.4855 45.3301 38.4929 45.345 38.5127C45.3648 38.5276 45.3821 38.5474 45.397 38.5722C45.4119 38.592 45.4218 38.6143 45.4267 38.6391C45.4366 38.6589 45.4416 38.6713 45.4416 38.6762C45.4416 38.7258 45.4218 38.7753 45.3821 38.8248C45.3425 38.8744 45.2954 38.9214 45.2409 38.966C45.1864 39.0057 45.1295 39.0453 45.07 39.0849C45.0155 39.1196 44.9734 39.1518 44.9437 39.1815C44.904 39.2014 44.8347 39.2336 44.7356 39.2782C44.6415 39.3227 44.5399 39.3698 44.4309 39.4194C44.3219 39.4689 44.2179 39.516 44.1188 39.5606C44.0247 39.6051 43.9578 39.6373 43.9181 39.6572C43.9082 39.6621 43.8859 39.6695 43.8513 39.6795C43.8166 39.6844 43.7794 39.6943 43.7398 39.7092C43.7002 39.724 43.6605 39.7364 43.6209 39.7463C43.5862 39.7513 43.5639 39.7562 43.554 39.7612C43.5094 39.7761 43.4747 39.8008 43.45 39.8355C43.4301 39.8702 43.4079 39.9049 43.3831 39.9396C43.3633 39.9742 43.336 40.004 43.3013 40.0287C43.2716 40.0535 43.2221 40.0609 43.1527 40.051C43.1478 40.0461 43.1255 40.0362 43.0858 40.0213C43.0511 40.0015 43.0289 39.9866 43.0189 39.9767C42.9 39.8925 42.7985 39.8132 42.7143 39.7389C42.63 39.6646 42.5532 39.5928 42.4839 39.5234C42.4145 39.4491 42.3476 39.3698 42.2832 39.2856C42.2238 39.2014 42.1544 39.1072 42.0752 39.0032ZM42.5433 38.7059C42.578 38.7803 42.6102 38.8521 42.6399 38.9214C42.6746 38.9908 42.7143 39.0577 42.7588 39.1221C42.8034 39.1815 42.853 39.2336 42.9075 39.2782C42.9669 39.3227 43.0388 39.35 43.123 39.3599C43.1329 39.2856 43.1453 39.1964 43.1601 39.0924C43.175 38.9883 43.1923 38.8793 43.2122 38.7654C43.232 38.6514 43.2543 38.54 43.279 38.431C43.3088 38.317 43.341 38.2179 43.3757 38.1337H43.3013C43.2221 38.1882 43.1478 38.2427 43.0784 38.2972C43.014 38.3468 42.9496 38.3963 42.8852 38.4458C42.8208 38.4904 42.7688 38.5301 42.7291 38.5647C42.7242 38.5697 42.7167 38.5771 42.7068 38.587C42.6969 38.5969 42.6895 38.6019 42.6845 38.6019C42.6796 38.6118 42.6573 38.6291 42.6176 38.6539C42.578 38.6787 42.5532 38.696 42.5433 38.7059ZM43.3757 38.0222C43.3608 38.0222 43.3534 38.0346 43.3534 38.0594C43.3534 38.0792 43.3608 38.0891 43.3757 38.0891C43.3955 38.0891 43.4054 38.0792 43.4054 38.0594C43.4054 38.0346 43.3955 38.0222 43.3757 38.0222ZM45.2707 38.4904C45.2756 38.4657 45.2905 38.4211 45.3153 38.3567C45.34 38.2923 45.3648 38.2229 45.3896 38.1486C45.4193 38.0743 45.4465 38.0049 45.4713 37.9405C45.4961 37.8761 45.5134 37.8315 45.5233 37.8067C45.5531 37.7275 45.5803 37.6754 45.6051 37.6507C45.6348 37.6259 45.6868 37.6135 45.7611 37.6135C45.8404 37.6135 45.8924 37.6408 45.9172 37.6953C45.942 37.7498 45.9544 37.8142 45.9544 37.8885C45.9544 38.0173 45.9345 38.1362 45.8949 38.2452C45.8602 38.3492 45.8206 38.4557 45.776 38.5647C45.7314 38.6688 45.6893 38.7827 45.6497 38.9066C45.615 39.0255 45.5976 39.1642 45.5976 39.3227C45.5976 39.3426 45.5976 39.3723 45.5976 39.4119C45.5976 39.4466 45.6001 39.4838 45.6051 39.5234C45.61 39.5581 45.6199 39.5903 45.6348 39.62C45.6497 39.6448 45.6695 39.6572 45.6943 39.6572C45.8231 39.6572 45.9519 39.6324 46.0807 39.5828C46.2145 39.5283 46.3433 39.4664 46.4671 39.3971C46.5959 39.3227 46.7173 39.2435 46.8313 39.1593C46.9502 39.0701 47.0567 38.9933 47.1508 38.9289C47.1855 38.9041 47.2103 38.8793 47.2251 38.8546C47.2449 38.8298 47.2623 38.8075 47.2771 38.7877C47.292 38.7629 47.3094 38.7431 47.3292 38.7282C47.3539 38.7084 47.3911 38.6985 47.4406 38.6985C47.505 38.6985 47.5571 38.7134 47.5967 38.7431C47.6413 38.7679 47.6636 38.8149 47.6636 38.8843C47.6636 38.914 47.6611 38.9413 47.6562 38.966C47.6562 38.9908 47.6438 39.0131 47.619 39.0329C47.614 39.0478 47.5942 39.0676 47.5595 39.0924C47.5298 39.1171 47.4976 39.1444 47.4629 39.1741C47.4283 39.1989 47.3961 39.2237 47.3663 39.2484C47.3366 39.2682 47.3143 39.2806 47.2994 39.2856C47.2945 39.2856 47.2796 39.293 47.2549 39.3079C47.235 39.3178 47.2227 39.3227 47.2177 39.3227C47.2127 39.3277 47.2053 39.3351 47.1954 39.345C47.1904 39.35 47.188 39.3549 47.188 39.3599C47.0839 39.4392 46.97 39.5209 46.8461 39.6051C46.7272 39.6844 46.6009 39.7587 46.4671 39.8281C46.3334 39.8925 46.1946 39.947 46.051 39.9916C45.9122 40.0362 45.7735 40.0585 45.6348 40.0585C45.5159 40.0585 45.4242 40.0287 45.3598 39.9693C45.3004 39.9049 45.2558 39.8256 45.2261 39.7315C45.1964 39.6373 45.179 39.5383 45.1741 39.4342C45.1691 39.3302 45.1666 39.236 45.1666 39.1518L45.2707 38.4904ZM45.6274 36.536C45.6274 36.4468 45.6447 36.3873 45.6794 36.3576C45.7141 36.3279 45.776 36.313 45.8652 36.313C45.9098 36.313 45.9544 36.3229 45.9989 36.3427C46.0435 36.3576 46.0658 36.3972 46.0658 36.4616C46.0658 36.5261 46.0336 36.5855 45.9692 36.64C45.9098 36.6945 45.8503 36.7217 45.7909 36.7217C45.7314 36.7217 45.6893 36.7044 45.6645 36.6697C45.6398 36.6301 45.6274 36.5855 45.6274 36.536ZM47.8271 39.9024L48.0797 38.4161V38.208L48.2284 37.2197C48.2432 37.1998 48.2705 37.1899 48.3101 37.1899C48.3498 37.185 48.377 37.1825 48.3919 37.1825C48.4315 37.1825 48.4761 37.1974 48.5256 37.2271C48.5801 37.2519 48.6074 37.2865 48.6074 37.3311V37.8365C48.6272 37.8216 48.6619 37.7919 48.7114 37.7473C48.761 37.7027 48.813 37.6556 48.8675 37.6061C48.9269 37.5565 48.9814 37.5095 49.031 37.4649C49.0805 37.4203 49.1127 37.3881 49.1276 37.3683C49.1821 37.3187 49.2465 37.2766 49.3208 37.2419C49.4001 37.2073 49.4744 37.1899 49.5437 37.1899C49.6874 37.1899 49.7989 37.2345 49.8781 37.3237C49.9624 37.4129 50.0045 37.5268 50.0045 37.6655C50.0045 37.6754 50.002 37.6829 49.9971 37.6878C49.9971 37.6878 49.9971 37.6928 49.9971 37.7027V37.7324L49.7147 39.0032V39.6051C49.8682 39.6051 50.0268 39.5754 50.1903 39.516C50.3587 39.4516 50.5197 39.3723 50.6733 39.2782C50.8269 39.184 50.9706 39.0775 51.1043 38.9586C51.2381 38.8347 51.3545 38.7158 51.4536 38.6019H51.4833C51.518 38.6019 51.5453 38.6143 51.5651 38.6391C51.5899 38.6589 51.6022 38.6861 51.6022 38.7208C51.6022 38.8298 51.5651 38.9388 51.4908 39.0478C51.4214 39.1518 51.3298 39.2509 51.2158 39.345C51.1068 39.4392 50.978 39.5283 50.8294 39.6126C50.6857 39.6968 50.542 39.7686 50.3983 39.8281C50.2596 39.8875 50.1234 39.9346 49.9896 39.9693C49.8559 40.004 49.7419 40.0213 49.6478 40.0213C49.5536 40.0213 49.4793 40.004 49.4248 39.9693C49.3703 39.9346 49.3282 39.89 49.2985 39.8355C49.2737 39.7761 49.2564 39.7117 49.2465 39.6423C49.2415 39.5729 49.239 39.4986 49.239 39.4194V39.3227L49.5289 37.881V37.6358C49.41 37.6358 49.2911 37.6878 49.1722 37.7919C49.0582 37.8959 48.9542 38.0222 48.86 38.1709C48.7709 38.3195 48.6916 38.4706 48.6222 38.6242C48.5578 38.7778 48.5108 38.9041 48.481 39.0032C48.4711 39.0379 48.4563 39.0998 48.4365 39.189C48.4166 39.2782 48.3968 39.3723 48.377 39.4714C48.3621 39.5705 48.3473 39.6646 48.3324 39.7538C48.3175 39.8429 48.3076 39.9074 48.3027 39.947C48.3076 39.9767 48.2977 39.999 48.273 40.0139C48.2531 40.0287 48.2284 40.0411 48.1986 40.051C48.1689 40.056 48.1367 40.0585 48.102 40.0585C48.0723 40.0585 48.0475 40.0585 48.0277 40.0585C47.9831 40.0585 47.9385 40.051 47.894 40.0362C47.8494 40.0213 47.8271 39.9841 47.8271 39.9247V39.9024ZM51.84 43.6776C51.8153 43.6032 51.793 43.5339 51.7732 43.4695C51.7583 43.4051 51.7484 43.3431 51.7434 43.2837C51.7385 43.2292 51.7335 43.1722 51.7286 43.1128C51.7286 43.0583 51.7286 42.9914 51.7286 42.9121C51.7286 42.9022 51.7286 42.8824 51.7286 42.8527C51.7286 42.8279 51.7286 42.7982 51.7286 42.7635C51.7286 42.7338 51.7286 42.704 51.7286 42.6743C51.7335 42.6495 51.736 42.6322 51.736 42.6223C51.7905 42.3795 51.85 42.1393 51.9144 41.9015C51.9837 41.6686 52.0655 41.4407 52.1596 41.2178C52.2537 40.9998 52.3677 40.7917 52.5014 40.5935C52.6352 40.4003 52.8012 40.2195 52.9993 40.051C53.0043 40.0263 53.0117 39.9767 53.0216 39.9024C53.0316 39.8281 53.0439 39.7513 53.0588 39.672C53.0737 39.5928 53.0836 39.5184 53.0885 39.4491C53.0984 39.3748 53.1059 39.3203 53.1108 39.2856C53.1108 39.2757 53.1083 39.2534 53.1034 39.2187C53.1034 39.1791 53.1034 39.1543 53.1034 39.1444H53.0811C52.9077 39.2336 52.7417 39.3128 52.5832 39.3822C52.4247 39.4466 52.2513 39.4788 52.063 39.4788C51.9589 39.4788 51.8698 39.4615 51.7955 39.4268C51.7261 39.3921 51.6691 39.345 51.6245 39.2856C51.5799 39.2261 51.5453 39.1568 51.5205 39.0775C51.5007 38.9982 51.4883 38.9115 51.4833 38.8174L51.6617 38.2749C51.7063 38.1511 51.7608 38.0198 51.8252 37.881C51.8945 37.7374 51.9713 37.6011 52.0556 37.4723C52.1447 37.3435 52.2463 37.2271 52.3602 37.123C52.4742 37.014 52.603 36.9373 52.7467 36.8927C52.9399 36.8629 53.1183 36.8679 53.2817 36.9075C53.4502 36.9472 53.5963 37.0041 53.7202 37.0785C53.8441 37.1528 53.9431 37.2345 54.0175 37.3237C54.0967 37.4079 54.1438 37.4822 54.1587 37.5466C54.1487 37.6209 54.1264 37.7002 54.0918 37.7844C54.0571 37.8637 54.0175 37.9455 53.9729 38.0297C53.9332 38.1089 53.8911 38.1833 53.8465 38.2526C53.8069 38.317 53.7772 38.3715 53.7574 38.4161C53.7177 38.5053 53.683 38.5994 53.6533 38.6985C53.6236 38.7976 53.5963 38.8992 53.5716 39.0032C53.5518 39.1072 53.5344 39.2138 53.5195 39.3227C53.5096 39.4268 53.5047 39.5234 53.5047 39.6126V39.724C53.7574 39.5754 54.0298 39.459 54.3221 39.3748C54.6144 39.2905 54.9043 39.2484 55.1916 39.2484C55.2263 39.2484 55.2709 39.2484 55.3254 39.2484C55.3848 39.2484 55.4393 39.2559 55.4889 39.2707C55.5434 39.2806 55.5904 39.3029 55.6301 39.3376C55.6697 39.3673 55.6895 39.4119 55.6895 39.4714C55.6895 39.5655 55.6375 39.6126 55.5335 39.6126C55.5186 39.6126 55.4839 39.6101 55.4294 39.6051C55.3749 39.5952 55.3378 39.5853 55.318 39.5754C55.2833 39.5804 55.2238 39.5903 55.1396 39.6051C55.0554 39.62 54.9637 39.6373 54.8646 39.6572C54.7656 39.677 54.6739 39.6968 54.5897 39.7166C54.5055 39.7364 54.446 39.7488 54.4113 39.7538C54.3965 39.7587 54.3667 39.7711 54.3221 39.7909C54.2825 39.8058 54.2379 39.8231 54.1884 39.8429C54.1388 39.8628 54.0893 39.8826 54.0397 39.9024C53.9952 39.9173 53.9654 39.9321 53.9506 39.947C53.9109 39.9569 53.8639 39.9767 53.8094 40.0064C53.7598 40.0312 53.7103 40.056 53.6607 40.0808C53.6112 40.1105 53.5666 40.1352 53.527 40.1551C53.4923 40.1798 53.475 40.1947 53.475 40.1997L53.4006 40.3037L53.2223 42.1838C53.2074 42.3127 53.1703 42.4687 53.1108 42.652C53.0563 42.8353 52.982 43.0112 52.8879 43.1797C52.7937 43.3481 52.6773 43.4893 52.5386 43.6032C52.4048 43.7222 52.2513 43.7816 52.0779 43.7816C52.0283 43.7816 51.9837 43.7742 51.9441 43.7593C51.9094 43.7494 51.8747 43.7222 51.84 43.6776ZM52.0927 42.9493C52.0977 42.9939 52.1026 43.0583 52.1076 43.1425C52.1175 43.2267 52.1348 43.2961 52.1596 43.3506C52.2537 43.3258 52.3404 43.2564 52.4197 43.1425C52.499 43.0335 52.5658 42.9096 52.6203 42.7709C52.6748 42.6322 52.7194 42.4935 52.7541 42.3548C52.7888 42.221 52.8111 42.117 52.821 42.0426C52.8408 41.9287 52.8557 41.8197 52.8656 41.7157C52.8804 41.6166 52.8928 41.52 52.9027 41.4258C52.9126 41.3367 52.9201 41.2475 52.925 41.1583C52.93 41.0691 52.9325 40.9725 52.9325 40.8685C52.9325 40.8536 52.93 40.8189 52.925 40.7644C52.925 40.7149 52.925 40.6827 52.925 40.6678C52.7913 40.8412 52.6798 41.0171 52.5906 41.1955C52.5014 41.3738 52.4247 41.5547 52.3602 41.738C52.3008 41.9262 52.2488 42.1194 52.2042 42.3176C52.1646 42.5207 52.1274 42.7313 52.0927 42.9493ZM51.9144 38.9586C51.9292 38.9982 51.949 39.0329 51.9738 39.0626C52.0035 39.0924 52.0432 39.1072 52.0927 39.1072C52.2958 39.1072 52.4767 39.0651 52.6352 38.9809C52.7987 38.8917 52.9424 38.7778 53.0662 38.6391C53.1901 38.5003 53.2966 38.3492 53.3858 38.1857C53.4799 38.0222 53.5592 37.8588 53.6236 37.6953V37.6655C53.5443 37.502 53.4527 37.398 53.3486 37.3534C53.2495 37.3039 53.143 37.2964 53.0291 37.3311C52.9201 37.3608 52.8086 37.4253 52.6947 37.5243C52.5807 37.6185 52.4717 37.7275 52.3677 37.8513C52.2686 37.9702 52.1794 38.0966 52.1001 38.2303C52.0209 38.3641 51.9589 38.4879 51.9144 38.6019C51.8698 38.7109 51.845 38.8001 51.84 38.8694C51.8351 38.9388 51.8599 38.9685 51.9144 38.9586ZM55.5558 39.0032C55.5161 39.023 55.474 39.0354 55.4294 39.0404C55.3848 39.0404 55.3402 39.0404 55.2957 39.0404C55.2511 39.0404 55.2065 39.0428 55.1619 39.0478C55.1173 39.0478 55.0727 39.0577 55.0281 39.0775C54.9439 39.0874 54.8894 39.0825 54.8646 39.0626C54.8399 39.0379 54.8324 39.0057 54.8423 38.966C54.8523 38.9264 54.8795 38.8818 54.9241 38.8323C54.9687 38.7827 55.0207 38.7406 55.0801 38.7059C55.1346 38.6713 55.1941 38.6465 55.2585 38.6316C55.3279 38.6168 55.3898 38.6192 55.4443 38.6391C55.4195 38.5499 55.422 38.4731 55.4517 38.4087C55.4814 38.3443 55.5409 38.3121 55.6301 38.3121C55.6747 38.3121 55.7143 38.317 55.749 38.3269C55.7886 38.3319 55.8183 38.3517 55.8382 38.3864C55.9125 38.3418 56.0116 38.2675 56.1354 38.1634C56.2593 38.0544 56.3856 37.9455 56.5144 37.8365C56.6482 37.7225 56.7696 37.6234 56.8786 37.5392C56.9875 37.45 57.0619 37.4054 57.1015 37.4054C57.1164 37.4054 57.1362 37.4079 57.1609 37.4129C57.1857 37.4129 57.2105 37.4178 57.2353 37.4277C57.265 37.4376 57.2873 37.45 57.3021 37.4649C57.322 37.4748 57.3319 37.4921 57.3319 37.5169V37.8365C57.2972 37.9752 57.2625 38.1065 57.2278 38.2303C57.1981 38.3492 57.1709 38.4681 57.1461 38.587C57.1263 38.701 57.1114 38.8174 57.1015 38.9363C57.0916 39.0552 57.0866 39.1815 57.0866 39.3153C57.1659 39.3153 57.26 39.298 57.369 39.2633C57.483 39.2286 57.5969 39.1865 57.7109 39.137C57.8248 39.0874 57.9313 39.0379 58.0304 38.9883C58.1295 38.9338 58.2088 38.8892 58.2682 38.8546C58.2781 38.8496 58.3004 38.8323 58.3351 38.8025C58.3698 38.7728 58.407 38.7431 58.4466 38.7134C58.4862 38.6787 58.5234 38.649 58.5581 38.6242C58.5977 38.5945 58.6225 38.5746 58.6324 38.5647C58.6423 38.5548 58.6671 38.5424 58.7067 38.5276C58.7463 38.5078 58.7686 38.4954 58.7736 38.4904C58.7934 38.4855 58.8107 38.4929 58.8256 38.5127C58.8454 38.5276 58.8627 38.5474 58.8776 38.5722C58.8925 38.592 58.9024 38.6143 58.9073 38.6391C58.9172 38.6589 58.9222 38.6713 58.9222 38.6762C58.9222 38.7258 58.9024 38.7753 58.8627 38.8248C58.8231 38.8744 58.776 38.9214 58.7215 38.966C58.6671 39.0057 58.6101 39.0453 58.5506 39.0849C58.4961 39.1196 58.454 39.1518 58.4243 39.1815C58.3847 39.2014 58.3153 39.2336 58.2162 39.2782C58.1221 39.3227 58.0205 39.3698 57.9115 39.4194C57.8025 39.4689 57.6985 39.516 57.5994 39.5606C57.5053 39.6051 57.4384 39.6373 57.3988 39.6572C57.3888 39.6621 57.3666 39.6695 57.3319 39.6795C57.2972 39.6844 57.26 39.6943 57.2204 39.7092C57.1808 39.724 57.1411 39.7364 57.1015 39.7463C57.0668 39.7513 57.0445 39.7562 57.0346 39.7612C56.99 39.7761 56.9553 39.8008 56.9306 39.8355C56.9108 39.8702 56.8885 39.9049 56.8637 39.9396C56.8439 39.9742 56.8166 40.004 56.7819 40.0287C56.7522 40.0535 56.7027 40.0609 56.6333 40.051C56.6284 40.0461 56.6061 40.0362 56.5664 40.0213C56.5318 40.0015 56.5095 39.9866 56.4996 39.9767C56.3806 39.8925 56.2791 39.8132 56.1949 39.7389C56.1106 39.6646 56.0338 39.5928 55.9645 39.5234C55.8951 39.4491 55.8282 39.3698 55.7638 39.2856C55.7044 39.2014 55.635 39.1072 55.5558 39.0032ZM56.0239 38.7059C56.0586 38.7803 56.0908 38.8521 56.1205 38.9214C56.1552 38.9908 56.1949 39.0577 56.2395 39.1221C56.284 39.1815 56.3336 39.2336 56.3881 39.2782C56.4475 39.3227 56.5194 39.35 56.6036 39.3599C56.6135 39.2856 56.6259 39.1964 56.6407 39.0924C56.6556 38.9883 56.673 38.8793 56.6928 38.7654C56.7126 38.6514 56.7349 38.54 56.7597 38.431C56.7894 38.317 56.8216 38.2179 56.8563 38.1337H56.7819C56.7027 38.1882 56.6284 38.2427 56.559 38.2972C56.4946 38.3468 56.4302 38.3963 56.3658 38.4458C56.3014 38.4904 56.2494 38.5301 56.2097 38.5647C56.2048 38.5697 56.1973 38.5771 56.1874 38.587C56.1775 38.5969 56.1701 38.6019 56.1651 38.6019C56.1602 38.6118 56.1379 38.6291 56.0983 38.6539C56.0586 38.6787 56.0338 38.696 56.0239 38.7059ZM56.8563 38.0222C56.8414 38.0222 56.834 38.0346 56.834 38.0594C56.834 38.0792 56.8414 38.0891 56.8563 38.0891C56.8761 38.0891 56.886 38.0792 56.886 38.0594C56.886 38.0346 56.8761 38.0222 56.8563 38.0222Z" fill="url(#paint1_linear_135_828)"/>
<path d="M41.9978 58.3725C36.8499 57.893 32.0102 55.6199 28.3444 51.9187C24.2403 47.775 21.9402 42.1773 21.9453 36.3452C21.9504 30.5131 24.2602 24.9193 28.3715 20.7828C32.4828 16.6463 38.0623 14.3024 43.8943 14.2616C49.7263 14.2209 55.338 16.4868 59.5066 20.5655C63.6753 24.6442 66.063 30.2051 66.1495 36.0366C66.236 41.868 64.0143 47.4973 59.9685 51.6979C55.9227 55.8984 50.3807 58.3298 44.5501 58.4621L14.8813 58.4621" stroke="#4173FF" stroke-width="5.46413"/>
<g filter="url(#filter0_d_135_828)">
<path d="M44.6618 13.6305L53.9268 8.12785L52.8305 20.6584L44.6618 13.6305Z" fill="url(#paint2_linear_135_828)"/>
</g>
<g filter="url(#filter1_d_135_828)">
<path d="M23.0494 58.0316L14.8806 65.0595L13.7843 52.529L23.0494 58.0316Z" fill="url(#paint3_linear_135_828)"/>
</g>
<defs>
<filter id="filter0_d_135_828" x="31.4453" y="0.380369" width="24.7601" height="28.0256" filterUnits="userSpaceOnUse" color-interpolation-filters="sRGB">
<feFlood flood-opacity="0" result="BackgroundImageFix"/>
<feColorMatrix in="SourceAlpha" type="matrix" values="0 0 0 0 0 0 0 0 0 0 0 0 0 0 0 0 0 0 127 0" result="hardAlpha"/>
<feOffset dx="-5.46887"/>
<feGaussianBlur stdDeviation="3.87378"/>
<feComposite in2="hardAlpha" operator="out"/>
<feColorMatrix type="matrix" values="0 0 0 0 0 0 0 0 0 0 0 0 0 0 0 0 0 0 0.3 0"/>
<feBlend mode="normal" in2="BackgroundImageFix" result="effect1_dropShadow_135_828"/>
<feBlend mode="normal" in="SourceGraphic" in2="effect1_dropShadow_135_828" result="shape"/>
</filter>
<filter id="filter1_d_135_828" x="0.567876" y="44.7815" width="24.7601" height="28.0256" filterUnits="userSpaceOnUse" color-interpolation-filters="sRGB">
<feFlood flood-opacity="0" result="BackgroundImageFix"/>
<feColorMatrix in="SourceAlpha" type="matrix" values="0 0 0 0 0 0 0 0 0 0 0 0 0 0 0 0 0 0 127 0" result="hardAlpha"/>
<feOffset dx="-5.46887"/>
<feGaussianBlur stdDeviation="3.87378"/>
<feComposite in2="hardAlpha" operator="out"/>
<feColorMatrix type="matrix" values="0 0 0 0 0 0 0 0 0 0 0 0 0 0 0 0 0 0 0.3 0"/>
<feBlend mode="normal" in2="BackgroundImageFix" result="effect1_dropShadow_135_828"/>
<feBlend mode="normal" in="SourceGraphic" in2="effect1_dropShadow_135_828" result="shape"/>
</filter>
<linearGradient id="paint0_linear_135_828" x1="44.1136" y1="31.051" x2="44.1136" y2="41.3028" gradientUnits="userSpaceOnUse">
<stop offset="0.59375" stop-color="#5E57C5"/>
<stop offset="0.854167" stop-color="#4173FF"/>
</linearGradient>
<linearGradient id="paint1_linear_135_828" x1="44.1136" y1="31.051" x2="44.1136" y2="41.3028" gradientUnits="userSpaceOnUse">
<stop stop-color="#204BB7"/>
<stop offset="0.739583" stop-color="#8860D0"/>
</linearGradient>
<linearGradient id="paint2_linear_135_828" x1="44.6618" y1="13.6305" x2="53.3787" y2="14.3931" gradientUnits="userSpaceOnUse">
<stop stop-color="#204BB7"/>
<stop offset="1" stop-color="#8860D0"/>
</linearGradient>
<linearGradient id="paint3_linear_135_828" x1="23.0494" y1="58.0316" x2="14.3325" y2="58.7943" gradientUnits="userSpaceOnUse">
<stop stop-color="#204BB7"/>
<stop offset="1" stop-color="#8860D0"/>
</linearGradient>
</defs>
</svg>
